<mxfile host="app.diagrams.net" modified="2023-03-23T14:12:20.876Z" agent="5.0 (Windows)" etag="EIDeOzmYYmrEjrcqnDO7" version="20.8.22" type="github">
  <diagram name="Page-1" id="z6pvnKGlWXv_aDVz531Q">
    <mxGraphModel dx="1772" dy="466" grid="0" gridSize="10" guides="1" tooltips="1" connect="1" arrows="1" fold="1" page="1" pageScale="1" pageWidth="850" pageHeight="1100" background="none" math="0" shadow="0">
      <root>
        <mxCell id="0" />
        <mxCell id="1" parent="0" />
        <mxCell id="BQBBtruVz7SwZv5tAhaj-1" value="" style="rounded=1;whiteSpace=wrap;html=1;" vertex="1" parent="1">
          <mxGeometry x="137" y="189" width="120" height="60" as="geometry" />
        </mxCell>
        <mxCell id="BQBBtruVz7SwZv5tAhaj-2" value="" style="shape=image;verticalLabelPosition=bottom;labelBackgroundColor=default;verticalAlign=top;aspect=fixed;imageAspect=0;image=data:image/png,iVBORw0KGgoAAAANSUhEUgAAAYkAAACACAMAAADJe2XzAAAAk1BMVEX///9aF+5PAO29rPdVCO6HY/JXDe7GuPh4TPBLAO2VdvPDtPhYEu6rlfXn4vxrOO+ObvL8+v/49v7WzPq3pPeZfvSfhvR7UPHd0/tlLO/h2fvs5/1wPvCLafJhI+/Sxvqnj/Xz7/7Lvvm6qPdpNO/Pw/mWevOdg/R4TvCynvaDXvF+VvHe1vvw7P10R/Dl3vyokfXYWTc/AAAHrUlEQVR4nO2diXaqOhRAISK9EaxzW+s8dFCr9v+/7hJQksCJGK0htWev9dZ6FTKQffFAJh0HQRAEQQrYLyp/mMVL2e3PCSj5w9Bp2e3PCYj7hyH1stufgyZsAU3YApqwBTRhC2jCFtCELaAJW0ATtiCZ8P4Eof0mxqPqH2DUD203ETbKrowZmh6asAM0YQtowhbQhC2gCVtAE7aAJmwBTdjCrzIxb9bOprlPky00ktWavBI9jWS9NFVrpFNaJU1XZKKTTLKgbai9Hqh85JudTE9MEXFZXkvoyCvLilcLNtHVmPFBO2myd615FbxOY41kY25CZ1oK/dAwkRxrAsech6i9RBN11n6nTLC+FX8IHdlH5ZCgyIRGD61goqfTsSuYEHqCigj7ggmN0siTrgm4fdFEWklzJnzoOwVNpJU0Z8IlCzShxpQJP65iPmijibSSZkyQFbsUUkMTSgyZoK0GuyvoK5pQYcpE+zX+jsoFbTSRVtKQiYHTjNu4kjlYoglCQfjVwCYUyShvc9iEIhnHh0yEipOF+mia2DvtODFp2WKCdAePAAN+OaAJEoDJHrdu2uigCbIHk4kAJsLxFjx1UOEV0jQRBYgFFLRLNPEAF/CengGaED6UKTBBW4p0AKIJxSmTa0wk1coEbTQBcHMTL3HQllvRPhNgo9+ZiUPQDsSD1pl4/PT/gIk2KyGUgrZdJmbdJU1F/LAJ9SXluL2JpB1ITzhokYlW8EyJ+Pz/oyZIJSiA18eAiUPQ5mNh9pjoNCnht8PPm3ALR3zcNJUJE0nQ3vGDdpjYPxHhXek2JooA37FvZ8IZZYK2BSa2q778rXTahKpuZk10rjZxCNrpwbJNtIJ/sAaViXD3DLIR0sm1vcaE627g4oY8AF1o4hC001HwEk3Mo3t8lAsOHA/udwp9mBuZUJQmxJ9LTRyC9rGTpUQT9Sg48Kpn8Aldz3ned9QXy03IQbvMvlhl64aEDivS+OJdmjgE7YfSTSgvjbr1QSbv+zQhBW3bTHiU9IDS79OEk4xpJxnYZSKk1Tew1EtNFL7PCZUswcQhaMffAFaZCMF8GZeaCAo3J+OPx2WYiOfdeJ/sf60y4ZKVotRLTRTDX+LKMOFU4/ZmT4k/aOL1B+IEnUM539BEu2QTszhosyH0ua6JZahaD8Eej4XOpHNN+NIn+XlAMZfOKCikyMTPzyjIXGAStKcXmNj5UqXFcqKkhAfcs0xEbw6bFZU+mEF5CzMKJq02BNzvVEiBiXDsgKW15lf3Ox0ZH4L2m66JKiuNQEdY0wspi01EGpbdGVvDIajwwT63S/tiC2kVmoC5vi9W/ND1NnGOWiY+4hOgocgnltU2/bP4HTv8PgyULEQV5B+Q96UmBkXsSzeR/NumkxeqaSKeqwN+m7MIItwshf1Owsz1uqQCWHJzqQmvcL4Zr2RZJpKgPf7SvSfibivoafMxOuBv+N+FJsQm/RBV0PxV3OFIEScO2t7G1zQRP4BDIbvGAnaX/61lIpl2kjZlbrLBXZtIgnY8g1zLRBKyczdFfK8IYULThLOWVGQrcN8m0rVGeiYmcTJ51lT0gs0G3ry18ImmCedTfKoSlTLu20Tyrxs0Ab9eHVgm65Nq4oP/ikrjTwxdE05DGDbyXfnp7M5NzKjCRLgcNnKMj3NzXpJkhFaDuOVnnakX10uOtNomWn1BhSd3qNy5iaTZARNuCMCzOD5zeoSyxfDRf/H1UvnpU9uE0w6FwWgyEg/du4kkaAMmIIQspjR/gSF9kvPWN+FsxVke0i843L2JQ/TVNeHMSWZmjE/G2RZS7RZx3NKTTvL1eaSE7/kprn/qkeOkCqUJ75hU3i3i7C1Gpd0ijqV5ShPpdZDzd4uYsFfJLzjDdfyeKZiYqt9GpSxW4+hLKZ5rEvrRN1QjyOas2kFl1DxQhar0lR6OWPPR7Olwd6Cheq7j6ar8w1rzfPgan1bjWNruWVHaV/WYbMT7Cgr3som7KhW0Mwfhjs7sWYz9orZjXdTu7r2SnQDAwF2FbAFN2AKasAU0YQtowhbQhC2gCVtAE7aAJmwBTdiC9Os4z//sp3pyVEZmtQMy+By79ptQrJGyCo9uFL1zeaYEysH9BSZ+Bx59PvNnradFF4cmrsSn/1S97hJo4vb4dHeGCzRhAp8OgUEsGTRhBp824EVmKWjCFD5dKtbUJKAJc4S0r9iUjYEmTBLSsdIFmjBLSN38TImYX2WiovPDJuUDT4wKiZvd6zhGNOFD2dFv0+2t5jF4+EUEfQpvqhMSH/ixCMGE/zmH8ju74wTJ8rZUuvC62ZMFE94Iyg25hklD6YJkXKCJG9MZql1Ia3fQxM3p7NQu6nxNB5owwMunaie26IHo6AJNGOHrWe1imkwPRhOGeF2rXTwxF2jCGPsTLj5mzjeaMMe+CmzrfLwv3j00YZDHkdKFuDYTTRhg0FS5QBOm2daKXKAJU2x7p12gCXPMPk65QBMmaT+pXaAJs7SnKhdowjStb9gFmjBPqw79PACaKIPWKj/gjSZKIucCTZRG15NcoIkSWYgu0ESpVNzUBZoomcA9bDeGJkonGMcu0IQFPPQjF2jCCuZLStCEHbz118UnIUbQWFCPIAiCIFbxH4eMHIbsS1syAAAAAElFTkSuQmCC;" vertex="1" parent="1">
          <mxGeometry x="145" y="202.75" width="99.78" height="32.5" as="geometry" />
        </mxCell>
        <mxCell id="BQBBtruVz7SwZv5tAhaj-3" value="" style="endArrow=classic;html=1;rounded=0;" edge="1" parent="1">
          <mxGeometry width="50" height="50" relative="1" as="geometry">
            <mxPoint x="257" y="219" as="sourcePoint" />
            <mxPoint x="320" y="219" as="targetPoint" />
          </mxGeometry>
        </mxCell>
        <mxCell id="BQBBtruVz7SwZv5tAhaj-4" value="" style="rounded=1;whiteSpace=wrap;html=1;fillColor=#6666FF;" vertex="1" parent="1">
          <mxGeometry x="320" y="145.5" width="118" height="159" as="geometry" />
        </mxCell>
        <mxCell id="BQBBtruVz7SwZv5tAhaj-5" value="&lt;b&gt;Enitity Extract&lt;/b&gt;" style="rounded=0;whiteSpace=wrap;html=1;opacity=80;" vertex="1" parent="1">
          <mxGeometry x="329" y="156" width="100" height="52" as="geometry" />
        </mxCell>
        <mxCell id="BQBBtruVz7SwZv5tAhaj-6" value="&lt;b&gt;Intent Extract&lt;/b&gt;" style="rounded=0;whiteSpace=wrap;html=1;opacity=80;" vertex="1" parent="1">
          <mxGeometry x="330" y="235.25" width="100" height="52" as="geometry" />
        </mxCell>
        <mxCell id="BQBBtruVz7SwZv5tAhaj-7" value="&lt;div style=&quot;font-size: 18px;&quot;&gt;&lt;font style=&quot;font-size: 18px;&quot; color=&quot;#ffffff&quot;&gt;&lt;b&gt;Chatbot&lt;/b&gt;&lt;/font&gt;&lt;/div&gt;&lt;div style=&quot;font-size: 18px;&quot;&gt;&lt;font style=&quot;font-size: 18px;&quot; color=&quot;#ffffff&quot;&gt;&lt;b&gt;&lt;font style=&quot;font-size: 18px;&quot;&gt;Manager&lt;/font&gt;&lt;br&gt;&lt;/b&gt;&lt;/font&gt;&lt;/div&gt;" style="rounded=1;whiteSpace=wrap;html=1;fillColor=#6666FF;" vertex="1" parent="1">
          <mxGeometry x="548" y="154" width="152" height="257" as="geometry" />
        </mxCell>
        <mxCell id="BQBBtruVz7SwZv5tAhaj-9" value="" style="rounded=1;whiteSpace=wrap;html=1;fillColor=#6666FF;" vertex="1" parent="1">
          <mxGeometry x="318" y="347" width="118" height="66" as="geometry" />
        </mxCell>
        <mxCell id="BQBBtruVz7SwZv5tAhaj-10" value="&lt;b&gt;Template generator&lt;br&gt;&lt;/b&gt;" style="rounded=0;whiteSpace=wrap;html=1;opacity=80;" vertex="1" parent="1">
          <mxGeometry x="327" y="354" width="100" height="52" as="geometry" />
        </mxCell>
        <mxCell id="BQBBtruVz7SwZv5tAhaj-11" value="&lt;b&gt;&lt;font color=&quot;#ffffff&quot;&gt;DataBase&lt;/font&gt;&lt;/b&gt;" style="shape=datastore;whiteSpace=wrap;html=1;fillColor=#6666FF;opacity=80;" vertex="1" parent="1">
          <mxGeometry x="748" y="276" width="93" height="97" as="geometry" />
        </mxCell>
        <mxCell id="BQBBtruVz7SwZv5tAhaj-12" value="" style="endArrow=classic;startArrow=classic;html=1;rounded=0;" edge="1" parent="1">
          <mxGeometry width="50" height="50" relative="1" as="geometry">
            <mxPoint x="703" y="325" as="sourcePoint" />
            <mxPoint x="740" y="325" as="targetPoint" />
          </mxGeometry>
        </mxCell>
        <mxCell id="BQBBtruVz7SwZv5tAhaj-15" value="" style="outlineConnect=0;dashed=0;verticalLabelPosition=bottom;verticalAlign=top;align=center;html=1;shape=mxgraph.aws3.patch_manager;fillColor=#FFFFFF;gradientColor=none;labelBackgroundColor=#FFFFFF;fontSize=18;fontColor=#FFFFFF;opacity=80;" vertex="1" parent="1">
          <mxGeometry x="603" y="201" width="48" height="48" as="geometry" />
        </mxCell>
        <mxCell id="BQBBtruVz7SwZv5tAhaj-16" value="" style="endArrow=classic;html=1;rounded=0;fontSize=18;fontColor=#FFFFFF;entryX=1;entryY=0.5;entryDx=0;entryDy=0;" edge="1" parent="1" target="BQBBtruVz7SwZv5tAhaj-9">
          <mxGeometry width="50" height="50" relative="1" as="geometry">
            <mxPoint x="548" y="380" as="sourcePoint" />
            <mxPoint x="509" y="365" as="targetPoint" />
          </mxGeometry>
        </mxCell>
        <mxCell id="BQBBtruVz7SwZv5tAhaj-17" value="" style="endArrow=classic;html=1;rounded=0;fontSize=18;fontColor=#6666FF;entryX=0;entryY=0.265;entryDx=0;entryDy=0;entryPerimeter=0;" edge="1" parent="1" target="BQBBtruVz7SwZv5tAhaj-7">
          <mxGeometry width="50" height="50" relative="1" as="geometry">
            <mxPoint x="436" y="222" as="sourcePoint" />
            <mxPoint x="488" y="170" as="targetPoint" />
          </mxGeometry>
        </mxCell>
        <mxCell id="BQBBtruVz7SwZv5tAhaj-21" value="" style="endArrow=classic;html=1;rounded=0;fontSize=18;fontColor=#FFFFFF;entryX=1.017;entryY=0.404;entryDx=0;entryDy=0;entryPerimeter=0;" edge="1" parent="1" target="BQBBtruVz7SwZv5tAhaj-22">
          <mxGeometry width="50" height="50" relative="1" as="geometry">
            <mxPoint x="320" y="379.5" as="sourcePoint" />
            <mxPoint x="75" y="301" as="targetPoint" />
            <Array as="points">
              <mxPoint x="75" y="380" />
              <mxPoint x="75" y="304" />
            </Array>
          </mxGeometry>
        </mxCell>
        <mxCell id="BQBBtruVz7SwZv5tAhaj-22" value="" style="html=1;verticalLabelPosition=bottom;align=center;labelBackgroundColor=#ffffff;verticalAlign=top;strokeWidth=2;strokeColor=#0000FF;shadow=0;dashed=0;shape=mxgraph.ios7.icons.smartphone;fontSize=18;fontColor=#6666FF;fillColor=#FFFFFF;opacity=80;" vertex="1" parent="1">
          <mxGeometry x="-6" y="262" width="59" height="104" as="geometry" />
        </mxCell>
        <mxCell id="BQBBtruVz7SwZv5tAhaj-24" value="" style="endArrow=classic;html=1;rounded=0;fontSize=18;fontColor=#6666FF;exitX=1;exitY=0.279;exitDx=0;exitDy=0;exitPerimeter=0;" edge="1" parent="1" source="BQBBtruVz7SwZv5tAhaj-22">
          <mxGeometry width="50" height="50" relative="1" as="geometry">
            <mxPoint x="91" y="222" as="sourcePoint" />
            <mxPoint x="135" y="222" as="targetPoint" />
            <Array as="points">
              <mxPoint x="73" y="291" />
              <mxPoint x="76" y="222" />
            </Array>
          </mxGeometry>
        </mxCell>
      </root>
    </mxGraphModel>
  </diagram>
</mxfile>
